<svg width="83" height="83" viewBox="0 0 83 83" fill="none" xmlns="http://www.w3.org/2000/svg">
<circle cx="41.5" cy="41.5" r="41.5" fill="black"/>
<path d="M65.375 58.25C65.375 58.681 65.2038 59.0943 64.899 59.3991C64.5943 59.7038 64.181 59.875 63.75 59.875H18.25C17.819 59.875 17.4057 59.7038 17.101 59.3991C16.7962 59.0943 16.625 58.681 16.625 58.25C16.625 57.8191 16.7962 57.4057 17.101 57.101C17.4057 56.7962 17.819 56.625 18.25 56.625H63.75C64.181 56.625 64.5943 56.7962 64.899 57.101C65.2038 57.4057 65.375 57.8191 65.375 58.25ZM18.3109 35.9429C18.2143 35.6021 18.2316 35.239 18.3603 34.909C18.489 34.579 18.7221 34.3001 19.0239 34.1147L40.1489 21.1147C40.4049 20.9573 40.6995 20.874 41 20.874C41.3005 20.874 41.5951 20.9573 41.8511 21.1147L62.9761 34.1147C63.278 34.2999 63.5112 34.5786 63.6402 34.9085C63.7691 35.2383 63.7867 35.6013 63.6904 35.9421C63.594 36.283 63.3889 36.583 63.1064 36.7965C62.8238 37.01 62.4792 37.1254 62.125 37.125H57.25V50.125H60.5C60.931 50.125 61.3443 50.2962 61.649 50.601C61.9538 50.9057 62.125 51.3191 62.125 51.75C62.125 52.181 61.9538 52.5943 61.649 52.8991C61.3443 53.2038 60.931 53.375 60.5 53.375H21.5C21.069 53.375 20.6557 53.2038 20.351 52.8991C20.0462 52.5943 19.875 52.181 19.875 51.75C19.875 51.3191 20.0462 50.9057 20.351 50.601C20.6557 50.2962 21.069 50.125 21.5 50.125H24.75V37.125H19.875C19.5211 37.1252 19.1769 37.0098 18.8946 36.7964C18.6123 36.583 18.4074 36.2833 18.3109 35.9429ZM44.25 48.5C44.25 48.931 44.4212 49.3443 44.726 49.6491C45.0307 49.9538 45.444 50.125 45.875 50.125C46.306 50.125 46.7193 49.9538 47.024 49.6491C47.3288 49.3443 47.5 48.931 47.5 48.5V38.75C47.5 38.3191 47.3288 37.9057 47.024 37.601C46.7193 37.2962 46.306 37.125 45.875 37.125C45.444 37.125 45.0307 37.2962 44.726 37.601C44.4212 37.9057 44.25 38.3191 44.25 38.75V48.5ZM34.5 48.5C34.5 48.931 34.6712 49.3443 34.976 49.6491C35.2807 49.9538 35.694 50.125 36.125 50.125C36.556 50.125 36.9693 49.9538 37.274 49.6491C37.5788 49.3443 37.75 48.931 37.75 48.5V38.75C37.75 38.3191 37.5788 37.9057 37.274 37.601C36.9693 37.2962 36.556 37.125 36.125 37.125C35.694 37.125 35.2807 37.2962 34.976 37.601C34.6712 37.9057 34.5 38.3191 34.5 38.75V48.5Z" fill="white"/>
</svg>
