<svg width="32" height="22" viewBox="0 0 32 22" fill="none" xmlns="http://www.w3.org/2000/svg">
<g id="Frame 368">
<path id="Vector" fill-rule="evenodd" clip-rule="evenodd" d="M32 1.373C32 1.73714 31.8555 2.08637 31.5983 2.34385C31.3411 2.60134 30.9923 2.746 30.6286 2.746H1.37143C1.0077 2.746 0.658875 2.60134 0.401682 2.34385C0.144489 2.08637 0 1.73714 0 1.373C0 1.00886 0.144489 0.659629 0.401682 0.402142C0.658875 0.144655 1.0077 0 1.37143 0H30.6286C30.9923 0 31.3411 0.144655 31.5983 0.402142C31.8555 0.659629 32 1.00886 32 1.373ZM32 10.5263C32 10.8905 31.8555 11.2397 31.5983 11.4972C31.3411 11.7547 30.9923 11.8993 30.6286 11.8993H1.37143C1.0077 11.8993 0.658875 11.7547 0.401682 11.4972C0.144489 11.2397 0 10.8905 0 10.5263C0 10.1622 0.144489 9.81295 0.401682 9.55546C0.658875 9.29797 1.0077 9.15332 1.37143 9.15332H30.6286C30.9923 9.15332 31.3411 9.29797 31.5983 9.55546C31.8555 9.81295 32 10.1622 32 10.5263ZM32 19.6796C32 20.0438 31.8555 20.393 31.5983 20.6505C31.3411 20.908 30.9923 21.0526 30.6286 21.0526H1.37143C1.0077 21.0526 0.658875 20.908 0.401682 20.6505C0.144489 20.393 0 20.0438 0 19.6796C0 19.3155 0.144489 18.9663 0.401682 18.7088C0.658875 18.4513 1.0077 18.3066 1.37143 18.3066H30.6286C30.9923 18.3066 31.3411 18.4513 31.5983 18.7088C31.8555 18.9663 32 19.3155 32 19.6796Z" fill="white"/>
</g>
</svg>
