<svg width="31" height="31" viewBox="0 0 31 31" fill="none" xmlns="http://www.w3.org/2000/svg">
<circle cx="15.5" cy="15.5" r="15.5" fill="#D9D9D9"/>
<path d="M16.6853 9.33325C17.4353 9.33525 17.816 9.33925 18.1447 9.34859L18.274 9.35325C18.4233 9.35859 18.5707 9.36525 18.7487 9.37325C19.458 9.40659 19.942 9.51859 20.3667 9.68325C20.8067 9.85259 21.1773 10.0819 21.548 10.4519C21.887 10.7852 22.1493 11.1883 22.3167 11.6333C22.4813 12.0579 22.5933 12.5419 22.6267 13.2519C22.6347 13.4293 22.6413 13.5766 22.6467 13.7266L22.6507 13.8559C22.6607 14.1839 22.6647 14.5646 22.666 15.3146L22.6667 15.8119V16.6853C22.6683 17.1715 22.6632 17.6578 22.6513 18.1439L22.6473 18.2733C22.642 18.4233 22.6353 18.5706 22.6273 18.7479C22.594 19.4579 22.4807 19.9413 22.3167 20.3666C22.1498 20.8118 21.8874 21.215 21.548 21.5479C21.2146 21.8868 20.8115 22.1491 20.3667 22.3166C19.942 22.4813 19.458 22.5933 18.7487 22.6266C18.5905 22.634 18.4323 22.6407 18.274 22.6466L18.1447 22.6506C17.816 22.6599 17.4353 22.6646 16.6853 22.6659L16.188 22.6666H15.3153C14.8288 22.6683 14.3423 22.6632 13.856 22.6513L13.7267 22.6473C13.5684 22.6413 13.4102 22.6344 13.252 22.6266C12.5427 22.5933 12.0587 22.4813 11.6333 22.3166C11.1884 22.1495 10.7855 21.8872 10.4527 21.5479C10.1134 21.2148 9.85082 20.8116 9.68333 20.3666C9.51867 19.9419 9.40667 19.4579 9.37333 18.7479C9.36591 18.5897 9.35924 18.4315 9.35333 18.2733L9.35 18.1439C9.33771 17.6578 9.33216 17.1715 9.33333 16.6853V15.3146C9.33147 14.8283 9.33636 14.3421 9.348 13.8559L9.35267 13.7266C9.358 13.5766 9.36467 13.4293 9.37267 13.2519C9.406 12.5419 9.518 12.0586 9.68267 11.6333C9.85008 11.1879 10.1131 10.7846 10.4533 10.4519C10.7861 10.1129 11.1888 9.85058 11.6333 9.68325C12.0587 9.51859 12.542 9.40659 13.252 9.37325C13.4293 9.36525 13.5773 9.35859 13.7267 9.35325L13.856 9.34925C14.3421 9.33741 14.8284 9.3323 15.3147 9.33392L16.6853 9.33325ZM16 12.6666C15.1159 12.6666 14.2681 13.0178 13.643 13.6429C13.0179 14.268 12.6667 15.1159 12.6667 15.9999C12.6667 16.884 13.0179 17.7318 13.643 18.3569C14.2681 18.9821 15.1159 19.3333 16 19.3333C16.8841 19.3333 17.7319 18.9821 18.357 18.3569C18.9821 17.7318 19.3333 16.884 19.3333 15.9999C19.3333 15.1159 18.9821 14.268 18.357 13.6429C17.7319 13.0178 16.8841 12.6666 16 12.6666ZM16 13.9999C16.2626 13.9999 16.5227 14.0516 16.7654 14.152C17.0081 14.2525 17.2286 14.3998 17.4143 14.5855C17.6001 14.7712 17.7474 14.9916 17.848 15.2342C17.9485 15.4769 18.0003 15.7369 18.0003 15.9996C18.0004 16.2622 17.9487 16.5223 17.8482 16.765C17.7478 17.0076 17.6005 17.2281 17.4148 17.4139C17.2291 17.5996 17.0086 17.747 16.766 17.8476C16.5234 17.9481 16.2633 17.9999 16.0007 17.9999C15.4702 17.9999 14.9615 17.7892 14.5865 17.4141C14.2114 17.0391 14.0007 16.5304 14.0007 15.9999C14.0007 15.4695 14.2114 14.9608 14.5865 14.5857C14.9615 14.2106 15.4702 13.9999 16.0007 13.9999M19.5007 11.6666C19.2797 11.6666 19.0677 11.7544 18.9114 11.9107C18.7551 12.0669 18.6673 12.2789 18.6673 12.4999C18.6673 12.7209 18.7551 12.9329 18.9114 13.0892C19.0677 13.2455 19.2797 13.3333 19.5007 13.3333C19.7217 13.3333 19.9336 13.2455 20.0899 13.0892C20.2462 12.9329 20.334 12.7209 20.334 12.4999C20.334 12.2789 20.2462 12.0669 20.0899 11.9107C19.9336 11.7544 19.7217 11.6666 19.5007 11.6666Z" fill="black"/>
</svg>
