<svg width="31" height="31" viewBox="0 0 31 31" fill="none" xmlns="http://www.w3.org/2000/svg">
<circle cx="15.5" cy="15.5" r="15.5" fill="#D9D9D9"/>
<path fill-rule="evenodd" clip-rule="evenodd" d="M20.322 21.1934V21.192L20.334 21.1634L22.3333 11.0834V11.0514C22.3333 10.8 22.24 10.5807 22.0387 10.4494C21.862 10.334 21.6587 10.326 21.516 10.3367C21.3832 10.3487 21.2522 10.3755 21.1253 10.4167C21.0712 10.4341 21.0179 10.4537 20.9653 10.4754L20.9567 10.4787L9.81 14.8514L9.80667 14.8527C9.77278 14.8643 9.73961 14.8779 9.70733 14.8934C9.62806 14.929 9.552 14.9714 9.48 15.02C9.33667 15.1187 9.064 15.3507 9.11 15.7187C9.148 16.024 9.358 16.2174 9.5 16.318C9.58382 16.3768 9.67393 16.426 9.76867 16.4647L9.79 16.474L9.79667 16.476L9.80133 16.478L11.752 17.1347C11.7453 17.2567 11.7573 17.3814 11.79 17.5047L12.7667 21.2107C12.82 21.4127 12.9353 21.5929 13.0963 21.7261C13.2574 21.8592 13.4561 21.9385 13.6645 21.953C13.873 21.9674 14.0807 21.9161 14.2585 21.8064C14.4363 21.6968 14.5753 21.5341 14.656 21.3414L16.1813 19.7107L18.8007 21.7187L18.838 21.7347C19.076 21.8387 19.298 21.8714 19.5013 21.844C19.7047 21.816 19.866 21.7307 19.9873 21.634C20.1277 21.5203 20.2395 21.3753 20.314 21.2107L20.3193 21.1994L20.3213 21.1954L20.322 21.1934ZM12.7567 17.25C12.7459 17.2089 12.7484 17.1654 12.764 17.1259C12.7796 17.0863 12.8074 17.0527 12.8433 17.03L19.4573 12.83C19.4573 12.83 19.8467 12.5934 19.8327 12.83C19.8327 12.83 19.902 12.8714 19.6933 13.0654C19.496 13.25 14.9793 17.6107 14.522 18.052C14.4966 18.0767 14.4788 18.1082 14.4707 18.1427L13.7333 20.956L12.7567 17.25Z" fill="black"/>
</svg>
