<svg width="31" height="31" viewBox="0 0 31 31" fill="none" xmlns="http://www.w3.org/2000/svg">
<circle cx="15.5" cy="15.5" r="15.5" fill="#D9D9D9"/>
<g clip-path="url(#clip0_19_2363)">
<path d="M13.026 23C19.064 23 22.367 17.997 22.367 13.666C22.3683 13.5253 22.3663 13.3846 22.361 13.244C23.0038 12.7782 23.5588 12.2019 24 11.542C23.3991 11.8062 22.7626 11.9808 22.111 12.06C22.7976 11.6497 23.3118 11.004 23.558 10.243C22.9133 10.6257 22.2072 10.894 21.471 11.036C20.9762 10.509 20.3214 10.1599 19.6081 10.0427C18.8948 9.92556 18.1627 10.0469 17.5253 10.3879C16.888 10.7289 16.3808 11.2706 16.0824 11.929C15.7841 12.5875 15.7112 13.3259 15.875 14.03C14.5697 13.9648 13.2926 13.6259 12.1268 13.0351C10.961 12.4444 9.93247 11.615 9.108 10.601C8.68958 11.3241 8.56195 12.1793 8.75101 12.9931C8.94006 13.8069 9.43165 14.5183 10.126 14.983C9.60541 14.9661 9.09619 14.8263 8.64 14.575V14.62C8.64127 15.3773 8.90382 16.1111 9.38332 16.6974C9.86283 17.2836 10.5299 17.6865 11.272 17.838C10.9903 17.9156 10.6992 17.9543 10.407 17.953C10.2009 17.9551 9.99517 17.936 9.793 17.896C10.0024 18.5483 10.4108 19.1186 10.9608 19.527C11.5109 19.9354 12.175 20.1613 12.86 20.173C11.6961 21.0859 10.2592 21.5814 8.78 21.58C8.5193 21.5819 8.25875 21.5669 8 21.535C9.50142 22.4924 11.2453 23.0007 13.026 23Z" fill="black"/>
</g>
<defs>
<clipPath id="clip0_19_2363">
<rect width="16" height="16" fill="white" transform="translate(8 8)"/>
</clipPath>
</defs>
</svg>
