<svg width="24" height="24" viewBox="0 0 24 24" fill="none" xmlns="http://www.w3.org/2000/svg">
<g id="ep:arrow-up">
<path id="Vector" d="M11.457 15.9295L3.49199 7.56996C3.35903 7.43048 3.28485 7.24516 3.28485 7.05246C3.28485 6.85975 3.35903 6.67444 3.49199 6.53496L3.50099 6.52596C3.56545 6.45811 3.64304 6.40408 3.72904 6.36716C3.81504 6.33023 3.90765 6.3112 4.00124 6.3112C4.09483 6.3112 4.18745 6.33023 4.27344 6.36716C4.35944 6.40408 4.43703 6.45811 4.50149 6.52596L12.0015 14.398L19.4985 6.52596C19.563 6.45811 19.6405 6.40408 19.7265 6.36716C19.8125 6.33023 19.9052 6.3112 19.9987 6.3112C20.0923 6.3112 20.1849 6.33023 20.2709 6.36716C20.3569 6.40408 20.4345 6.45811 20.499 6.52596L20.508 6.53496C20.641 6.67444 20.7151 6.85975 20.7151 7.05246C20.7151 7.24516 20.641 7.43048 20.508 7.56996L12.543 15.9295C12.4729 16.003 12.3887 16.0615 12.2954 16.1015C12.202 16.1415 12.1015 16.1621 12 16.1621C11.8984 16.1621 11.798 16.1415 11.7046 16.1015C11.6113 16.0615 11.527 16.003 11.457 15.9295Z" fill="black"/>
</g>
</svg>
